<svg xmlns="http://www.w3.org/2000/svg" xmlns:xlink="http://www.w3.org/1999/xlink" width="138.941" height="49.526" viewBox="0 0 138.941 49.526">
  <defs>
    <clipPath id="clip-path">
      <rect id="Rectangle_328" data-name="Rectangle 328" width="138.941" height="49.526" fill="none"/>
    </clipPath>
  </defs>
  <g id="Group_217" data-name="Group 217" transform="translate(0 0)">
    <path id="Path_252" data-name="Path 252" d="M0,.086V37.725H4.884V20.693H19.2V16.671H4.884V4.162H20.378V.086Z" transform="translate(0 -0.031)" fill="#1c70b5"/>
    <g id="Group_204" data-name="Group 204" transform="translate(0 0)">
      <g id="Group_203" data-name="Group 203" clip-path="url(#clip-path)">
        <path id="Path_253" data-name="Path 253" d="M39.509,10.666H44.45V37.694H39.509Zm5.5-7.595a3.06,3.06,0,0,1-6.119,0A3,3,0,0,1,41.98,0a2.924,2.924,0,0,1,3.031,3.071" transform="translate(-13.798 0)" fill="#1c70b5"/>
        <path id="Path_254" data-name="Path 254" d="M60.085,23.508c0-2.792-.056-5.082-.225-7.316h4.379l.281,4.468h.112a10,10,0,0,1,8.982-5.082c3.762,0,9.6,2.234,9.6,11.5V43.221h-4.94V27.641c0-4.356-1.628-7.986-6.288-7.986a7.209,7.209,0,0,0-6.961,7.316V43.221H60.085Z" transform="translate(-21.237 -5.527)" fill="#1c70b5"/>
        <path id="Path_255" data-name="Path 255" d="M109.215,4.219H97.707V.086H125.72V4.219H114.156V37.725h-4.941Z" transform="translate(-34.664 -0.03)" fill="#1c70b5"/>
        <path id="Path_256" data-name="Path 256" d="M143.348,24.625c0-3.183-.056-5.919-.225-8.432h4.323l.168,5.305h.225c1.236-3.629,4.211-5.919,7.523-5.919a5.372,5.372,0,0,1,1.4.168V20.38a7.463,7.463,0,0,0-1.684-.167c-3.48,0-5.95,2.624-6.624,6.31a13.75,13.75,0,0,0-.225,2.289V43.22h-4.884Z" transform="translate(-50.776 -5.527)" fill="#1c70b5"/>
        <path id="Path_257" data-name="Path 257" d="M177.035.086V22.368c0,8.432,3.761,12.006,8.814,12.006,5.613,0,9.207-3.686,9.207-12.006V.086H200V22.032c0,11.56-6.119,16.307-14.315,16.307-7.747,0-13.586-4.412-13.586-16.083V.086Z" transform="translate(-61.055 -0.03)" fill="#1c70b5"/>
        <rect id="Rectangle_325" data-name="Rectangle 325" width="0.701" height="4.969" transform="translate(0.03 44.464)" fill="#1c70b5"/>
        <path id="Path_258" data-name="Path 258" d="M4,70.051v3.829H3.295V68.912h.764l2.766,3.853V68.912h.7v4.969H6.763Z" transform="translate(-1.169 -24.448)" fill="#1c70b5"/>
        <path id="Path_259" data-name="Path 259" d="M14.563,70.016a1.56,1.56,0,0,0-1.239-.589c-.6,0-.974.263-.974.667,0,1.093,2.79.6,2.79,2.365,0,.876-.717,1.465-1.832,1.465a2.188,2.188,0,0,1-1.885-.845l.507-.473a1.687,1.687,0,0,0,1.387.659c.686,0,1.076-.294,1.076-.759,0-1.21-2.79-.675-2.79-2.388,0-.8.709-1.349,1.746-1.349a2.105,2.105,0,0,1,1.714.767Z" transform="translate(-4.053 -24.397)" fill="#1c70b5"/>
        <path id="Path_260" data-name="Path 260" d="M19.514,69.54v1.9h1.107a.983.983,0,0,0,1.114-.954c0-.574-.444-.946-1.114-.946Zm-.7-.628h1.745c1.154,0,1.918.62,1.918,1.574s-.772,1.581-1.933,1.581H19.514v1.814h-.7Z" transform="translate(-6.674 -24.448)" fill="#1c70b5"/>
        <rect id="Rectangle_326" data-name="Rectangle 326" width="0.701" height="4.969" transform="translate(16.861 44.464)" fill="#1c70b5"/>
        <path id="Path_261" data-name="Path 261" d="M30.117,69.54v1.744h1.107a.907.907,0,0,0,1.028-.876c0-.527-.413-.868-1.028-.868Zm-.7-.628h1.746c1.1,0,1.823.589,1.823,1.5a1.439,1.439,0,0,1-1.161,1.418l1.247,2.054h-.81l-1.169-1.969h-.974v1.969h-.7Z" transform="translate(-10.436 -24.448)" fill="#1c70b5"/>
        <path id="Path_262" data-name="Path 262" d="M36.855,68.912h3.172v.659H37.557v1.489h2.159v.659H37.557v1.5h2.471v.659H36.855Z" transform="translate(-13.075 -24.448)" fill="#1c70b5"/>
        <path id="Path_263" data-name="Path 263" d="M48.283,73.922a2.578,2.578,0,0,1-.015-5.155,2.5,2.5,0,0,1,1.785.62l-.468.543a1.98,1.98,0,0,0-1.317-.473,1.889,1.889,0,0,0,.062,3.775A2.381,2.381,0,0,0,49.374,73V71.387h.7v2.054a3.059,3.059,0,0,1-1.792.481" transform="translate(-16.22 -24.396)" fill="#1c70b5"/>
        <path id="Path_264" data-name="Path 264" d="M54.415,68.912h.7v4.31H57.7v.659H54.415Z" transform="translate(-19.305 -24.448)" fill="#1c70b5"/>
        <path id="Path_265" data-name="Path 265" d="M64.112,71.357A1.813,1.813,0,1,0,62.3,73.233a1.859,1.859,0,0,0,1.816-1.876m.748,0A2.56,2.56,0,1,1,62.3,68.768a2.568,2.568,0,0,1,2.564,2.589" transform="translate(-21.194 -24.397)" fill="#1c70b5"/>
        <path id="Path_266" data-name="Path 266" d="M70.139,71.645v1.612h1.317a.816.816,0,1,0,.008-1.612Zm0-2.1v1.512h1.208a.766.766,0,1,0,0-1.512Zm-.7-.62h1.98a1.424,1.424,0,0,1,1.55,1.334A1.151,1.151,0,0,1,72.2,71.32a1.213,1.213,0,0,1,.927,1.194,1.443,1.443,0,0,1-1.59,1.372h-2.1Z" transform="translate(-24.635 -24.452)" fill="#1c70b5"/>
        <path id="Path_267" data-name="Path 267" d="M78.3,69.656l-.935,2.326h1.878Zm1.192,2.954H77.106l-.514,1.271h-.741l2.058-4.969h.826l2.058,4.969H80Z" transform="translate(-26.91 -24.448)" fill="#1c70b5"/>
        <path id="Path_268" data-name="Path 268" d="M84.86,68.912h.7v4.31h2.587v.659H84.86Z" transform="translate(-30.106 -24.448)" fill="#1c70b5"/>
        <path id="Path_269" data-name="Path 269" d="M95.44,69.571v4.31h-.7v-4.31H93.157v-.659H97.03v.659Z" transform="translate(-33.049 -24.448)" fill="#1c70b5"/>
        <path id="Path_270" data-name="Path 270" d="M101.14,69.54v1.744h1.107a.907.907,0,0,0,1.028-.876c0-.527-.413-.868-1.028-.868Zm-.7-.628h1.746c1.1,0,1.823.589,1.823,1.5a1.439,1.439,0,0,1-1.161,1.418l1.247,2.054h-.81l-1.169-1.969h-.974v1.969h-.7Z" transform="translate(-35.633 -24.448)" fill="#1c70b5"/>
        <path id="Path_271" data-name="Path 271" d="M107.734,68.912h.709v3.031a1.25,1.25,0,1,0,2.494,0V68.912h.709v3.031a1.957,1.957,0,1,1-3.912,0Z" transform="translate(-38.221 -24.448)" fill="#1c70b5"/>
        <path id="Path_272" data-name="Path 272" d="M118.447,70.016a1.562,1.562,0,0,0-1.239-.589c-.6,0-.974.263-.974.667,0,1.093,2.79.6,2.79,2.365,0,.876-.717,1.465-1.831,1.465a2.189,2.189,0,0,1-1.886-.845l.507-.473a1.688,1.688,0,0,0,1.387.659c.686,0,1.075-.294,1.075-.759,0-1.21-2.79-.675-2.79-2.388,0-.8.71-1.349,1.746-1.349a2.105,2.105,0,0,1,1.714.767Z" transform="translate(-40.907 -24.397)" fill="#1c70b5"/>
        <path id="Path_273" data-name="Path 273" d="M124.074,69.571v4.31h-.7v-4.31h-1.582v-.659h3.873v.659Z" transform="translate(-43.208 -24.448)" fill="#1c70b5"/>
        <rect id="Rectangle_327" data-name="Rectangle 327" width="0.701" height="4.969" transform="translate(85.058 44.464)" fill="#1c70b5"/>
        <path id="Path_274" data-name="Path 274" d="M135.785,70.051v3.829h-.709V68.912h.763l2.767,3.853V68.912h.7v4.969h-.763Z" transform="translate(-47.921 -24.448)" fill="#1c70b5"/>
        <path id="Path_275" data-name="Path 275" d="M147.926,69.571v4.31h-.7v-4.31h-1.582v-.659h3.873v.659Z" transform="translate(-51.67 -24.448)" fill="#1c70b5"/>
        <path id="Path_276" data-name="Path 276" d="M156.5,71.357a1.813,1.813,0,1,0-1.816,1.876,1.859,1.859,0,0,0,1.816-1.876m.748,0a2.56,2.56,0,1,1-2.564-2.589,2.568,2.568,0,0,1,2.564,2.589" transform="translate(-53.97 -24.397)" fill="#1c70b5"/>
        <path id="Path_277" data-name="Path 277" d="M162.527,70.028v3.853h-.7V68.912h.81l1.8,2.845,1.792-2.845h.717v4.969h-.7V70.028L164.39,72.9Z" transform="translate(-57.411 -24.448)" fill="#1c70b5"/>
        <path id="Path_278" data-name="Path 278" d="M175.894,71.357a1.813,1.813,0,1,0-1.816,1.876,1.859,1.859,0,0,0,1.816-1.876m.748,0a2.56,2.56,0,1,1-2.564-2.589,2.568,2.568,0,0,1,2.564,2.589" transform="translate(-60.851 -24.397)" fill="#1c70b5"/>
        <path id="Path_279" data-name="Path 279" d="M181.922,69.54v1.744h1.107a.907.907,0,0,0,1.028-.876c0-.527-.413-.868-1.028-.868Zm-.7-.628h1.745c1.1,0,1.824.589,1.824,1.5a1.439,1.439,0,0,1-1.161,1.418l1.247,2.054h-.81L182.9,71.912h-.974v1.969h-.7Z" transform="translate(-64.292 -24.448)" fill="#1c70b5"/>
        <path id="Path_280" data-name="Path 280" d="M189.361,69.54v1.744h1.107a.907.907,0,0,0,1.028-.876c0-.527-.413-.868-1.028-.868Zm-.7-.628h1.745c1.1,0,1.824.589,1.824,1.5a1.439,1.439,0,0,1-1.161,1.418l1.247,2.054h-.81l-1.169-1.969h-.974v1.969h-.7Z" transform="translate(-66.931 -24.448)" fill="#1c70b5"/>
        <path id="Path_281" data-name="Path 281" d="M199.8,71.357a1.813,1.813,0,1,0-1.816,1.876,1.859,1.859,0,0,0,1.816-1.876m.748,0a2.56,2.56,0,1,1-2.564-2.589,2.568,2.568,0,0,1,2.564,2.589" transform="translate(-69.331 -24.397)" fill="#1c70b5"/>
        <path id="Path_282" data-name="Path 282" d="M211.284,68.912l-1.605,4.969h-.873l-1.177-4.093-1.184,4.093H205.6L204,68.912h.779l1.254,4.117,1.185-4.117h.881l1.192,4.124,1.254-4.124Z" transform="translate(-72.373 -24.448)" fill="#1c70b5"/>
      </g>
    </g>
  </g>
</svg>
